<svg width="800" height="500" viewBox="0 0 800 500" xmlns="http://www.w3.org/2000/svg">
  <rect width="800" height="500" fill="#EEF2FF" />
  <rect x="50" y="50" width="700" height="400" rx="10" fill="white" stroke="#4F46E5" stroke-width="2" />

  <!-- Header -->
  <rect x="100" y="80" width="600" height="60" rx="5" fill="#F9FAFB" />
  <text x="120" y="120" font-family="Arial" font-size="24" font-weight="bold" fill="#4F46E5">Mes Événements</text>

  <!-- Calendar Header -->
  <rect x="100" y="160" width="600" height="50" rx="5" fill="#E0E7FF" />
  <text x="140" y="190" font-family="Arial" font-size="16" fill="#4338CA">LUN</text>
  <text x="240" y="190" font-family="Arial" font-size="16" fill="#4338CA">MAR</text>
  <text x="340" y="190" font-family="Arial" font-size="16" fill="#4338CA">MER</text>
  <text x="440" y="190" font-family="Arial" font-size="16" fill="#4338CA">JEU</text>
  <text x="540" y="190" font-family="Arial" font-size="16" fill="#4338CA">VEN</text>
  <text x="640" y="190" font-family="Arial" font-size="16" fill="#4338CA">SAM</text>

  <!-- Calendar Week 1 -->
  <rect x="100" y="210" width="85" height="80" rx="3" fill="#F9FAFB" stroke="#E0E7FF" stroke-width="1" />
  <text x="115" y="235" font-family="Arial" font-size="14" fill="#6B7280">1</text>

  <rect x="185" y="210" width="85" height="80" rx="3" fill="#F9FAFB" stroke="#E0E7FF" stroke-width="1" />
  <text x="200" y="235" font-family="Arial" font-size="14" fill="#6B7280">2</text>

  <rect x="270" y="210" width="85" height="80" rx="3" fill="#F9FAFB" stroke="#E0E7FF" stroke-width="1" />
  <text x="285" y="235" font-family="Arial" font-size="14" fill="#6B7280">3</text>

  <rect x="355" y="210" width="85" height="80" rx="3" fill="#F9FAFB" stroke="#E0E7FF" stroke-width="1" />
  <text x="370" y="235" font-family="Arial" font-size="14" fill="#6B7280">4</text>

  <rect x="440" y="210" width="85" height="80" rx="3" fill="#F9FAFB" stroke="#E0E7FF" stroke-width="1" />
  <text x="455" y="235" font-family="Arial" font-size="14" fill="#6B7280">5</text>

  <rect x="525" y="210" width="85" height="80" rx="3" fill="#F9FAFB" stroke="#E0E7FF" stroke-width="1" />
  <text x="540" y="235" font-family="Arial" font-size="14" fill="#6B7280">6</text>

  <rect x="610" y="210" width="90" height="80" rx="3" fill="#F9FAFB" stroke="#E0E7FF" stroke-width="1" />
  <text x="625" y="235" font-family="Arial" font-size="14" fill="#6B7280">7</text>

  <!-- Event on day 5 -->
  <rect x="445" y="245" width="75" height="30" rx="3" fill="#818CF8" />
  <text x="455" y="265" font-family="Arial" font-size="12" fill="white">Anniversaire</text>

  <!-- Calendar Week 2 -->
  <rect x="100" y="290" width="85" height="80" rx="3" fill="#F9FAFB" stroke="#E0E7FF" stroke-width="1" />
  <text x="115" y="315" font-family="Arial" font-size="14" fill="#6B7280">8</text>

  <rect x="185" y="290" width="85" height="80" rx="3" fill="#F9FAFB" stroke="#E0E7FF" stroke-width="1" />
  <text x="200" y="315" font-family="Arial" font-size="14" fill="#6B7280">9</text>

  <rect x="270" y="290" width="85" height="80" rx="3" fill="#F9FAFB" stroke="#E0E7FF" stroke-width="1" />
  <text x="285" y="315" font-family="Arial" font-size="14" fill="#6B7280">10</text>

  <rect x="355" y="290" width="85" height="80" rx="3" fill="#4F46E5" stroke="#E0E7FF" stroke-width="1" />
  <text x="370" y="315" font-family="Arial" font-size="14" font-weight="bold" fill="white">11</text>

  <rect x="440" y="290" width="85" height="80" rx="3" fill="#F9FAFB" stroke="#E0E7FF" stroke-width="1" />
  <text x="455" y="315" font-family="Arial" font-size="14" fill="#6B7280">12</text>

  <rect x="525" y="290" width="85" height="80" rx="3" fill="#F9FAFB" stroke="#E0E7FF" stroke-width="1" />
  <text x="540" y="315" font-family="Arial" font-size="14" fill="#6B7280">13</text>

  <rect x="610" y="290" width="90" height="80" rx="3" fill="#F9FAFB" stroke="#E0E7FF" stroke-width="1" />
  <text x="625" y="315" font-family="Arial" font-size="14" fill="#6B7280">14</text>

  <!-- Event on day 11 -->
  <rect x="360" y="325" width="75" height="30" rx="3" fill="#C7D2FE" />
  <text x="375" y="345" font-family="Arial" font-size="12" fill="#4338CA">Retraite</text>

  <!-- Add Event Button -->
  <rect x="100" y="390" width="600" height="40" rx="5" fill="#4F46E5" />
  <text x="330" y="415" font-family="Arial" font-size="16" font-weight="bold" fill="white">Ajouter un événement</text>
</svg>
