<svg width="800" height="500" viewBox="0 0 800 500" xmlns="http://www.w3.org/2000/svg">
  <rect width="800" height="500" fill="#EEF2FF" />
  <rect x="50" y="50" width="700" height="400" rx="10" fill="white" stroke="#4F46E5" stroke-width="2" />

  <!-- Header -->
  <rect x="100" y="80" width="600" height="60" rx="5" fill="#F9FAFB" />
  <text x="120" y="120" font-family="Arial" font-size="24" font-weight="bold" fill="#4F46E5">Mes Groupes</text>

  <!-- Group 1 -->
  <rect x="100" y="160" width="290" height="180" rx="8" fill="#F9FAFB" stroke="#E0E7FF" stroke-width="2" />
  <text x="150" y="190" font-family="Arial" font-size="18" font-weight="bold" fill="#4338CA">Famille</text>

  <!-- Group 1 members -->
  <circle cx="130" cy="220" r="15" fill="#4F46E5" />
  <circle cx="170" cy="220" r="15" fill="#818CF8" />
  <circle cx="210" cy="220" r="15" fill="#6366F1" />
  <circle cx="250" cy="220" r="15" fill="#A5B4FC" />

  <rect x="120" y="250" width="250" height="12" rx="2" fill="#E0E7FF" />
  <rect x="120" y="270" width="200" height="12" rx="2" fill="#E0E7FF" />
  <rect x="120" y="290" width="230" height="12" rx="2" fill="#E0E7FF" />
  <rect x="120" y="310" width="180" height="12" rx="2" fill="#E0E7FF" />

  <!-- Group 2 -->
  <rect x="410" y="160" width="290" height="180" rx="8" fill="#F9FAFB" stroke="#E0E7FF" stroke-width="2" />
  <text x="460" y="190" font-family="Arial" font-size="18" font-weight="bold" fill="#4338CA">Amis</text>

  <!-- Group 2 members -->
  <circle cx="440" cy="220" r="15" fill="#4F46E5" />
  <circle cx="480" cy="220" r="15" fill="#818CF8" />
  <circle cx="520" cy="220" r="15" fill="#6366F1" />
  <circle cx="560" cy="220" r="15" fill="#A5B4FC" />
  <circle cx="600" cy="220" r="15" fill="#C7D2FE" />

  <rect x="430" y="250" width="250" height="12" rx="2" fill="#E0E7FF" />
  <rect x="430" y="270" width="200" height="12" rx="2" fill="#E0E7FF" />
  <rect x="430" y="290" width="230" height="12" rx="2" fill="#E0E7FF" />
  <rect x="430" y="310" width="180" height="12" rx="2" fill="#E0E7FF" />

  <!-- New Group Button -->
  <rect x="100" y="360" width="600" height="60" rx="8" fill="#4F46E5" />
  <text x="330" y="398" font-family="Arial" font-size="18" font-weight="bold" fill="white">Créer un nouveau groupe</text>
</svg>
